<svg xmlns="http://www.w3.org/2000/svg" viewBox="0 0 273.25 273.12"><defs><style>.cls-1{fill:#0e2849;}</style></defs><title>facebook</title><g id="Layer_2" data-name="Layer 2"><g id="Layer_1-2" data-name="Layer 1"><path class="cls-1" d="M136.8,6.67A129.64,129.64,0,0,1,266.55,136.5c0,68.08-52.29,124-118.69,129.36a61.32,61.32,0,0,1-11.06.67,126.39,126.39,0,0,1-28.16-3c-58.34-13-101.95-65.05-101.95-127C6.69,64.68,65.07,6.67,136.8,6.67m0-6.67C61.38,0,0,61.29,0,136.5,0,199.85,45.09,256.05,107.16,270a138.55,138.55,0,0,0,29.64,3.08,83,83,0,0,0,12.21-.6c69.37-5.63,124.24-65.34,124.24-136C273.25,61.29,212,0,136.8,0Z"/><path class="cls-1" d="M151.55,109.25c2-2.36,6-4.06,11.75-4.06A67.58,67.58,0,0,1,181,107.68l5.06-27.26c-10.39-3.63-21.1-4.66-32.19-4.66s-19.8,1.7-26.83,5.76c-7,3.87-11.74,8.29-14.41,14.71-2.69,5.76-4,15.38-4,27.5v10.71H87.15v31.14h21.49V263.5a126.39,126.39,0,0,0,28.16,3,61.32,61.32,0,0,0,11.06-.67V165.58h28.49V134.44H147.86v-10C147.86,116.7,148.89,112,151.55,109.25Z"/></g></g></svg>