<svg xmlns="http://www.w3.org/2000/svg" viewBox="0 0 4.41 4.41"><defs><style>.cls-1,.cls-2{fill:#052749;}.cls-2{fill-rule:evenodd;}</style></defs><title>instagram</title><g id="Layer_2" data-name="Layer 2"><g id="Layer_1-2" data-name="Layer 1"><path class="cls-1" d="M2.2.11A2.1,2.1,0,1,1,.11,2.2,2.1,2.1,0,0,1,2.2.11M2.2,0A2.21,2.21,0,1,0,4.41,2.2,2.21,2.21,0,0,0,2.2,0Z"/><path class="cls-2" d="M3,1.07H1.37a.27.27,0,0,0-.3.31V3a.26.26,0,0,0,.29.29H3A.27.27,0,0,0,3.34,3V1.37A.27.27,0,0,0,3,1.07Zm-.19.26c.23,0,.23,0,.23.22s0,.22-.22.22-.23,0-.23-.22S2.63,1.33,2.85,1.33Zm-.65.43a.45.45,0,0,1,.44.44.44.44,0,0,1-.44.44.45.45,0,0,1-.44-.44A.46.46,0,0,1,2.2,1.76Zm.88,1.18c0,.11,0,.14-.14.14H1.46c-.1,0-.13,0-.13-.14V2.12c0-.08,0-.1.09-.1s.1,0,.09.11a.7.7,0,0,0,.55.76.72.72,0,0,0,.81-.49.58.58,0,0,0,0-.32s0-.05,0-.05.16,0,.16.15Z"/></g></g></svg>