<svg xmlns="http://www.w3.org/2000/svg" viewBox="0 0 221.74 162.65"><defs><style>.cls-1,.cls-4{fill:#050505;stroke:#050505;}.cls-1,.cls-4,.cls-5{stroke-miterlimit:10;}.cls-1{stroke-width:1.65px;}.cls-2{fill:#fcfcfc;}.cls-3{fill:#f9f9f9;}.cls-4{stroke-width:1.68px;}.cls-5{font-size:25.38px;stroke:#fcfcfc;stroke-width:1.1px;font-family:Arenq;}.cls-6{letter-spacing:-0.1em;}.cls-7{letter-spacing:-0.01em;}</style></defs><title>logo</title><g id="Layer_2" data-name="Layer 2"><g id="Layer_1-2" data-name="Layer 1"><circle class="cls-1" cx="112.18" cy="81.32" r="80.5"/><path class="cls-2" d="M185.57,93.12a71.42,71.42,0,0,1-7.89,24.71,72.64,72.64,0,0,1-16.3,20.41,73.5,73.5,0,0,1-22.53,13.43,73.57,73.57,0,0,1-51.72-.09,73.45,73.45,0,0,1-22.48-13.51A72.62,72.62,0,0,1,48.42,117.6a71.55,71.55,0,0,1-7.8-24.74.55.55,0,0,1,1.08-.17,73.76,73.76,0,0,0,25.06,42.92,72.11,72.11,0,0,0,92.51.16A73.67,73.67,0,0,0,184.49,93a.54.54,0,0,1,.64-.44A.55.55,0,0,1,185.57,93.12Z"/><path class="cls-2" d="M41.25,66.82a71,71,0,0,1,8.32-23.54A73,73,0,0,1,87.48,11.11a73.55,73.55,0,0,1,25-4.58,75,75,0,0,1,25,4.14A73.1,73.1,0,0,1,176,42.13a70.52,70.52,0,0,1,8.74,23.38.55.55,0,0,1-.44.64.56.56,0,0,1-.63-.4,74.4,74.4,0,0,0-26.49-39.69,72.33,72.33,0,0,0-89.08.78A74.48,74.48,0,0,0,42.33,67a.57.57,0,0,1-.67.4A.56.56,0,0,1,41.25,66.82Z"/><path class="cls-3" d="M177,92.8a62.08,62.08,0,0,1-7,21.46,64.17,64.17,0,0,1-34.09,29.31,65.86,65.86,0,0,1-22.63,4,64.21,64.21,0,0,1-42.19-16.06A63.53,63.53,0,0,1,57,113.57,62.21,62.21,0,0,1,50.22,92a.28.28,0,0,1,.24-.31.27.27,0,0,1,.3.22A65.65,65.65,0,0,0,73.1,129.09a63.66,63.66,0,0,0,80.54.47,65.54,65.54,0,0,0,22.8-36.86.27.27,0,0,1,.54.1Z"/><path class="cls-3" d="M51.09,66.78a62.31,62.31,0,0,1,7.66-20A63.95,63.95,0,0,1,91.64,19.72,64.42,64.42,0,0,1,113,15.87a65.63,65.63,0,0,1,21.44,3.45,64,64,0,0,1,33.43,26.42,61.75,61.75,0,0,1,8,19.81.26.26,0,0,1-.21.32.27.27,0,0,1-.32-.19A65.73,65.73,0,0,0,151.75,32a63.87,63.87,0,0,0-77.16.74,65.73,65.73,0,0,0-23,34.22.28.28,0,0,1-.54-.13Z"/><rect class="cls-4" x="0.84" y="68.64" width="220.06" height="28.44"/><text class="cls-5" transform="translate(4.12 91.99)">Roller <tspan class="cls-6" x="105.61" y="0">G</tspan><tspan class="cls-7" x="124.64" y="0">a</tspan><tspan x="145.85" y="0">rden</tspan></text><path class="cls-3" d="M62.38,66.52a50.41,50.41,0,0,1,6.21-16.18,51.7,51.7,0,0,1,26.65-22,52.18,52.18,0,0,1,17.32-3.12,53.43,53.43,0,0,1,17.38,2.79A52,52,0,0,1,157,49.46a50.09,50.09,0,0,1,6.52,16.06.22.22,0,0,1-.17.26.21.21,0,0,1-.26-.15A53.33,53.33,0,0,0,144,38.29a51.76,51.76,0,0,0-62.53.6A53.35,53.35,0,0,0,62.81,66.62a.21.21,0,0,1-.27.15A.22.22,0,0,1,62.38,66.52Z"/><path class="cls-3" d="M72.13,66a40.52,40.52,0,0,1,5-13.06,41.29,41.29,0,0,1,9.21-10.69,41.75,41.75,0,0,1,26.29-9.56,43.17,43.17,0,0,1,14,2.26,41.84,41.84,0,0,1,21.86,17.28,40.51,40.51,0,0,1,5.27,13,.17.17,0,0,1-.14.21.18.18,0,0,1-.21-.12A43,43,0,0,0,138,43.19a41.8,41.8,0,0,0-50.48.48,43,43,0,0,0-15,22.39.18.18,0,0,1-.22.12A.17.17,0,0,1,72.13,66Z"/></g></g></svg>