<?xml version="1.0" encoding="utf-8"?>
<!-- Generator: Adobe Illustrator 23.0.0, SVG Export Plug-In . SVG Version: 6.00 Build 0)  -->
<svg version="1.1" id="Layer_1" xmlns="http://www.w3.org/2000/svg" xmlns:xlink="http://www.w3.org/1999/xlink" x="0px" y="0px"
	 viewBox="0 0 506.8 404.2" style="enable-background:new 0 0 506.8 404.2;" xml:space="preserve">
<style type="text/css">
	.st0{fill:#041C30;stroke:#041C30;stroke-width:3.77;stroke-miterlimit:10;}
	.st1{fill:#FFFFFF;stroke:#041C30;stroke-miterlimit:10;}
	.st2{fill:#041C30;stroke:#041C30;stroke-width:3.84;stroke-miterlimit:10;}
	.st3{fill:#041C30;stroke:#FCFCFC;stroke-miterlimit:10;}
	.st4{font-family:'Arenq';}
	.st5{font-size:58px;}
	.st6{fill:#041C30;stroke:#FCFCFC;stroke-width:2.51;stroke-miterlimit:10;}
	.st7{letter-spacing:-5;}
	.st8{fill:#041C30;stroke:#FCFCFC;stroke-width:1.0388;stroke-linecap:round;stroke-miterlimit:10;}
	.st9{fill:#041C30;stroke:#FCFCFC;stroke-width:1.0388;stroke-miterlimit:10;}
</style>
<title>logo2</title>
<g>
	<path class="st0" d="M256.4,1.9c-101.6,0-184,82.4-184,184c0,78.7,49.4,145.8,118.9,172.1c0.4-1.1,0.7-2.3,0.8-3.5
		c0.2-2.9,2.2-5.3,5.2-5.5c3.8-3.1,9.1-4.8,13.5-2.4c1.3,0.7,2.3,1.6,3.1,2.7c0.5,0.1,1.1,0.3,1.6,0.5c1.2,0.6,2.2,1.2,3.2,2
		c2.4,0,4.8,1.3,5.2,4c0,0.2,0,0.3,0.1,0.5c0.9-0.7,1.9-1.3,2.9-1.9c5.6-3.1,11.1,4.2,6.7,8.7c-1.5,1.5-2.8,3.2-4.2,4.9
		c8.8,1.3,17.9,2,27.1,2c5.3,0,10.5-0.2,15.7-0.7c0.4-0.9,1-1.7,1.9-2.3c-0.1-0.2-0.1-0.3-0.2-0.5c-1.2-0.9-2.1-2.3-2.2-4.1
		c-0.1-1.7-0.5-3.5-0.7-5.2c-0.5-6.5,9.1-7.2,10.9-1.5c0.5,1.7,1.1,3.6,1.7,5.5c1.1-1.1,2.6-1.7,4-1.7c0.3,0,0.6,0,0.9,0.1
		c0.7-2.7,3.9-4.1,6.8-3.5c1-0.8,2.3-1.1,3.6-1.1c1.2-3.7,5.8-6.1,8.9-2.3c0,0.1,0.1,0.1,0.1,0.2c2.1-1.4,4.3-2.4,6.8-2.9
		c3-0.5,6,0.8,6.8,3.9c0.4,1.5,0.1,3.2-0.7,4.5c69.8-26.1,119.6-93.4,119.6-172.4C440.4,84.3,358,1.9,256.4,1.9z"/>
	<path class="st1" d="M197.3,349c1.4-1.1,2.9-2.1,4.6-2.7c-18.8-6.4-36.8-16.4-52.8-29.8c-14.8-12.4-27.4-27.4-37.1-44.1
		c-9.8-16.9-16.6-35.3-20.2-54.5c-0.1-0.4-0.4-0.6-0.8-0.6c-0.4,0-0.7,0.4-0.7,0.8c2.4,19.7,8.5,38.8,17.8,56.3
		c18.6,34.8,48.9,61.8,85.4,76.3C194.6,349.7,195.8,349.1,197.3,349z"/>
	<path class="st1" d="M420,217.9c-0.4-0.1-0.8,0.2-0.8,0.6c-3.6,19.2-10.6,37.5-20.4,54.4c-9.8,16.7-22.4,31.6-37.3,44
		c-23.9,19.9-52,32.1-81.1,36.5c0.6,0.6,1.2,1.4,1.4,2.3c0.4,1.4,0.9,3,1.4,4.6c0.7-0.1,1.4-0.3,2.1-0.4c0.7-0.3,1.5-0.5,2.2-0.5
		c0.1,0,0.3,0,0.4,0c0.2,0,0.4-0.1,0.6-0.1c0.8-2.6,4-4,6.7-3.4c1-0.8,2.3-1.1,3.6-1c1.2-3.7,5.8-6.1,8.9-2.3c0,0.1,0.1,0.1,0.1,0.2
		c2.1-1.4,4.3-2.4,6.8-2.9c1.4-0.2,2.7-0.1,3.9,0.5c35.8-14.6,65.5-41.1,83.9-75.2c9.4-17.5,15.5-36.6,18-56.3
		C420.7,218.4,420.4,218,420,217.9z"/>
	<path class="st1" d="M270.9,357.1c-0.1-1,0.1-1.9,0.5-2.7c-18.1,1.7-36.4,0.5-54.1-3.7c0.5,0.3,0.9,0.6,1.4,0.9
		c2.4,0,4.8,1.3,5.2,4c0,0.2,0,0.3,0.1,0.5c0.9-0.7,1.9-1.3,2.9-1.9c4.9-2.7,9.8,2.6,7.9,7c12.2,1.5,24.6,1.7,36.9,0.5
		C271.4,360.2,271.1,358.7,270.9,357.1z"/>
	<path class="st1" d="M94.3,152.7c3.1-18.9,9.5-37.1,19-53.8C132.7,65,163.4,39,200,25.4c46.2-17.2,97.7-13.2,140.7,11
		c2.1,1.1,4.2,2.4,6.3,3.7s4,2.6,6,3.9c4,2.7,7.9,5.7,11.6,8.7c7.5,6.1,14.4,12.9,20.7,20.2c6.3,7.3,11.9,15.1,16.9,23.4
		c9.8,16.5,16.6,34.6,20,53.4c0.1,0.7-0.3,1.3-1,1.4c0,0,0,0,0,0c-0.6,0.1-1.3-0.3-1.4-0.9c-4.9-18-12.6-35.1-23-50.6
		c-5.1-7.7-10.9-14.9-17.2-21.7c-6.3-6.7-13.1-12.9-20.4-18.5C299,13.3,215,14,155.6,61.4c-14.4,11.5-26.9,25.3-36.8,40.9
		c-10,15.7-17.5,32.9-22,51c-0.2,0.7-0.8,1.1-1.5,0.9c0,0,0,0,0,0C94.6,154,94.2,153.4,94.3,152.7z"/>
	<path class="st1" d="M230.3,334.5c-24.8-4.1-48.7-14.5-69.2-31.4c-12.9-10.7-24-23.5-32.6-37.9c-8.7-14.5-15-30.4-18.5-47
		c-0.1-0.3-0.4-0.5-0.7-0.5c-0.3,0-0.6,0.3-0.6,0.7c2,17.2,7.3,33.9,15.4,49.2c4.1,7.7,8.9,15,14.3,21.8c5.4,6.9,11.4,13.2,18,19
		c13.2,11.6,28.4,20.8,44.8,27.1c15.1,5.7,30.9,8.9,46.8,9.5C241.1,343.8,234.8,340.6,230.3,334.5z"/>
	<path class="st1" d="M398.5,220.1c0-0.3-0.2-0.5-0.4-0.6c-0.3-0.1-0.7,0.1-0.8,0.4c-3.7,16.5-10.1,32.4-19,46.8
		c-4.4,7.1-9.4,13.9-15,20.2c-5.5,6.3-11.6,12-18.1,17.3c-23,18.6-50.3,29.1-78.1,31.7c2.6,2.7,2.7,7.7-1.5,8.9
		c13.2-1.1,26.4-3.9,39-8.5c24.8-9.1,46.7-24.8,63.4-45.4c5.5-6.8,10.3-14,14.5-21.7C390.9,253.9,396.3,237.3,398.5,220.1
		L398.5,220.1z"/>
	<path class="st1" d="M116.8,152.6c3.1-16.1,9-31.6,17.5-45.6c17.2-28.6,43.8-50.5,75.2-61.9c31.6-11.4,66.1-11.8,97.9-1
		c23.6,8.1,44.8,22.1,61.5,40.7c5.5,6.1,10.5,12.7,14.9,19.7c8.7,13.9,15,29.2,18.4,45.3c0.1,0.3-0.1,0.7-0.5,0.8
		c-0.3,0.1-0.6-0.1-0.7-0.4c-4.7-15.4-11.8-29.9-21-43.1c-4.6-6.5-9.6-12.7-15.2-18.4c-5.5-5.7-11.5-10.9-17.8-15.6
		c-52.5-39-124.6-38.3-176.4,1.7c-12.6,9.8-23.5,21.5-32.4,34.7c-9,13.3-15.7,28-20.1,43.5c-0.1,0.3-0.5,0.5-0.8,0.4
		C116.9,153.2,116.7,152.9,116.8,152.6z"/>
	<rect x="1.9" y="156.9" class="st2" width="503" height="65"/>
	<text transform="matrix(1 0 0 1 9.42 210.25)" class="st3 st4 st5">Roller </text>
	<text transform="matrix(1 0 0 1 9.42 210.25)" class="st6 st4 st5">Roller </text>
	<text transform="matrix(1 0 0 1 250.81 210.25)" class="st3 st4 st5 st7">G</text>
	<text transform="matrix(1 0 0 1 250.81 210.25)" class="st6 st4 st5 st7">G</text>
	<text transform="matrix(1 0 0 1 294.31 210.25)" class="st3 st4 st5">a</text>
	<text transform="matrix(1 0 0 1 294.31 210.25)" class="st6 st4 st5">a</text>
	<text transform="matrix(1 0 0 1 342.8 210.25)" class="st3 st4 st5">rden</text>
	<text transform="matrix(1 0 0 1 342.8 210.25)" class="st6 st4 st5">rden</text>
	<path class="st1" d="M142.6,152c2.5-13.1,7.3-25.6,14.2-37c14-23.2,35.5-40.9,60.9-50.2c25.6-9.2,53.6-9.5,79.3-0.7
		c19.2,6.6,36.3,17.9,49.9,33c4.5,5,8.5,10.3,12,16c7.1,11.3,12.1,23.7,14.9,36.7c0.1,0.3-0.1,0.6-0.4,0.6s-0.6-0.1-0.6-0.4l0,0
		c-3.8-12.5-9.5-24.3-17-34.9c-7.4-10.6-16.5-19.9-26.8-27.6c-42.6-31.6-101-31.1-142.9,1.4c-10.2,7.9-19,17.4-26.2,28.1
		c-7.3,10.8-12.7,22.7-16.3,35.3c-0.1,0.3-0.3,0.4-0.6,0.4C142.7,152.6,142.5,152.3,142.6,152L142.6,152z"/>
	<path class="st1" d="M164.9,150.8c2-10.5,5.9-20.6,11.4-29.8c11.3-18.7,28.6-33,49.2-40.5c20.6-7.5,43.2-7.7,64-0.6
		c20.7,7.1,38.3,21,50,39.5c5.7,9.1,9.8,19.1,12,29.6c0,0.2-0.1,0.4-0.3,0.5l0,0c-0.2,0-0.4-0.1-0.5-0.3
		c-6.1-20.2-18.5-37.8-35.4-50.5C281,73.2,233.9,73.7,200,99.8c-16.6,13-28.7,30.9-34.3,51.2c-0.1,0.2-0.3,0.3-0.5,0.3
		C164.9,151.2,164.8,151,164.9,150.8z"/>
</g>
<g>
	<g>
		<path class="st8" d="M251.6,334.3l-18.5-9.8l-14.5-7.5l-1-0.6l-2.8-2.6l-4.2-4.6l-3-4.4l-0.1-0.1l-0.5-1.3c0,0,0-0.1,0-0.1
			l-1.1-4.8l-1.5-6.5l-1-3.6c0-0.1,0-0.1-0.1-0.2l-0.4-0.7c0-0.1-0.1-0.1-0.1-0.2l-0.6-0.5l-0.1-0.1l-1-0.5c-0.1,0-0.2-0.1-0.2-0.1
			l-1.2-0.1c-0.1,0-0.1,0-0.2,0l-2,0.4h-0.1l-2.3,0.7l0,0l-2.5,0.9h-0.1l-2.2,1.1l-1.8,0.9h-0.1l-12.6,4h-0.1l-4.3,1.8h-0.1
			l-2.4,1.4h-0.1l-1,0.7l-0.1,0.1l-0.5,0.7c0,0-0.1,0.1-0.1,0.1l-0.3,0.6c0,0.1-0.1,0.1-0.1,0.2l-0.1,0.6c0,0,0,0.1,0,0.1l-0.1,1
			v0.1l0.1,1.1l0.1,1.1c0,0.1,0,0.1,0,0.2l0.3,0.8c0,0,0,0.1,0.1,0.1l0.5,0.8l0.5,0.9v0.1l0.2,0.4c0.1,0.2,0.1,0.4,0,0.6
			c-0.1,0.1-0.2,0.3-0.3,0.3l-0.2,0.1l-0.1,0.1l-0.6,0.5l-0.5,0.4c-0.1,0.1-0.2,0.2-0.2,0.3l-0.3,0.8l-0.6,1.4v0.1l-0.3,1.4
			c0,0,0,0.1,0,0.1l-0.1,1.4l-0.1,1.9v2.4l0.1,3.5v0.1l0.3,3.5l0.9,7.1l0.8,6.6l0.2,2.3c0,0,0,0,0,0.1l0.4,2.1l0.4,1.6v0.1l0.6,1.5
			l0.1,0.1l2.2,3.8v0.1l1.6,3.4c0.1,0.3,0.1,0.6-0.1,0.8l-1.2,1.2l-0.1,0.1l-3.7,2.9l-0.1,0.1l-2.1,2.2c0,0-0.1,0.1-0.1,0.1
			l-0.3,0.6l-0.1,0.1l-0.3,1c0,0.1,0,0.1,0,0.2l-0.1,1.5v0.1l0.1,1.6l0.2,2.1c0,0.1,0,0.1,0,0.2l0.6,1.7v0.1l0.8,1.5
			c0,0.1,0.1,0.1,0.1,0.1l1,1v0.1l1.2,1l0.1,0.1l1.4,0.7l0.2,0.1l2.1,0.5l1.4,0.3c0.1,0,0.2,0,0.2,0l1.8-0.2l1.1-0.1h0.1l1-0.3h0.3
			l1.5-0.6l0.1-0.1l1.4-1l0.1-0.1l1-1.2l1-1.3v-0.1l1-1.5l1.2-1.7c0-0.1,0.1-0.1,0.2-0.2l1-0.7l0.1-0.1l1.5-0.8l0,0l2.2-1.4l1.3-0.8
			l0.1-0.1l1.2-1c0,0,0.1-0.1,0.1-0.1l1.2-1.5l1.3-1.5v-0.1l0.7-1.1c0.1-0.1,0.1-0.2,0.1-0.3l0.6-3.6c0,0,0-0.1,0-0.1l0.3-0.9
			c0.1-0.3,0.5-0.5,0.8-0.4l8.1,1.7l15.4,3.5c0.3,0.1,0.5,0.2,0.6,0.5l3,7.1c0.1,0.3,0.1,0.7-0.2,0.9l-0.9,0.9l-0.1,0.1l-1.1,1.6
			c-0.1,0.1-0.1,0.2-0.1,0.2l-0.3,1l0,0l-0.3,1.4c0,0,0,0.1,0,0.1l-0.1,1.5v0.1l0.1,1.2c0,0.1,0,0.2,0.1,0.2l0.5,1.2c0,0,0,0,0,0.1
			l1.1,2v0.1l1,1.4c0,0.1,0.1,0.1,0.1,0.2l1.1,1l0.1,0.1l1.7,1l1.5,0.6"/>
		<path class="st8" d="M228.3,354.9c-21.1-0.9-41.6-10.6-61.4-16.9"/>
		<line class="st8" x1="198" y1="353.6" x2="167.8" y2="346.7"/>
		<path class="st8" d="M185.9,367.9l-1.4-3.1l-0.5-1c-0.4-0.9-1-1.7-1.6-2.5l-0.5-0.6c-0.1-0.1-0.2-0.3-0.4-0.4l-1-1
			c-0.4-0.5-0.9-0.9-1.4-1.2l-1.2-0.7c-0.2-0.1-0.4-0.3-0.7-0.4l-0.7-0.4c-0.6-0.3-1.2-0.5-1.9-0.7l-0.2-0.1
			c-0.8-0.2-1.6-0.2-2.4-0.1h-0.1"/>
		<path class="st8" d="M177.3,366.9c0,0-0.9-3.4-3.2-4c-1.2-0.4-2.5-0.3-3.5,0.3"/>
		<path class="st8" d="M217.7,353.7l3.9-12.1l3.2,0.3c0.4,0,0.9,0.1,1.3,0.1l7.2-0.2l7.6-0.7"/>
		<polyline class="st8" points="221.6,341.7 223.3,333.7 223.5,326.3 		"/>
		<path class="st8" d="M232.2,325.2L232.2,325.2c-0.3,0.4-0.6,0.7-1,0.8l-1,0.4l-1.6,0.3c-0.2,0-0.3,0.1-0.5,0.1h-2.3
			c-0.5,0-1-0.1-1.5-0.3l-7.8-3.9l-10.5-5.9l-11.8-7.4c-0.7-0.4-1.1-1.1-1.3-1.9l-3.3-17.7"/>
		<polyline class="st8" points="211.4,352.3 212.6,347.7 213.5,344.3 213.8,340 213.8,336.7 213.3,334.1 210.1,335.4 206.9,337.3 
			204.3,339.2 201.6,341.6 199.5,344.2 196.6,348 		"/>
		<polyline class="st8" points="194.9,347.5 192.3,343.4 188.9,338.2 184.9,333.1 179.1,326.8 174.4,322.7 169.6,318.6 164.8,315.2 
					"/>
		<polyline class="st8" points="216.6,322.6 211.8,325 207.7,327.5 203.5,330.5 199.9,333.7 196.7,336.8 191.8,342.2 		"/>
		<circle class="st8" cx="221.1" cy="321.4" r="1.8"/>
		<circle class="st8" cx="214.9" cy="318.4" r="1.8"/>
		<circle class="st8" cx="208.8" cy="314.9" r="1.8"/>
		<circle class="st8" cx="203.3" cy="311.1" r="1.8"/>
		<circle class="st8" cx="199.3" cy="306.7" r="1.8"/>
		<circle class="st8" cx="197.1" cy="300.5" r="1.8"/>
		<circle class="st8" cx="195" cy="294" r="1.8"/>
		<line class="st8" x1="222.6" y1="319.8" x2="221.1" y2="321.4"/>
		<line class="st8" x1="216.6" y1="316.8" x2="215.1" y2="318.4"/>
		<path class="st8" d="M212.4,311.9c-0.5,0.3-1,0.6-1.4,0.9l-2,1.6"/>
		<path class="st8" d="M209,307c-0.9,0.2-1.8,0.7-2.5,1.2l-0.6,0.5l-2.6,2.4"/>
		<path class="st8" d="M206.3,301.4l-4.2,2.6c-0.4,0.3-0.8,0.6-1.1,0.9l-1.7,1.8"/>
		<path class="st8" d="M203.3,295.9c-0.6,0.2-1.2,0.5-1.7,0.8l-1.7,1.1l-2.9,2.6"/>
		<polyline class="st8" points="201.5,289.4 198.6,290.9 195,294 		"/>
		<path class="st9" d="M268.1,402.5l-3.1-1.3l-2.1-1.3l-1.5-1l-0.1-0.1l-2.5-2.8l-1.3-1.7l-1-1.7l-0.9-2.1c-0.2-0.5-0.8-0.9-1.4-1
			l-7.3-0.5h-0.1c-0.8,0-1.4,0.5-1.5,1.3l-0.1,0.7c-0.1,0.2-0.3,0.4-0.5,0.4l-1.5,0.1l-2.7-0.1l-2.2-0.5l-2.7-0.7l-2.4-1L231,388
			l-1.3-1.1l-1.5-1.4l-0.1-0.1l-0.8-1c-0.2-0.2-0.2-0.5,0-0.7l7.6-9.3c0.3-0.4,0.4-0.9,0.3-1.3l-1-4.9c-0.1-0.6-0.5-1-1.1-1.2
			l-3.1-0.9c-1.4-0.4-2.4-1.5-2.7-2.9l-0.3-1.6l-0.5-4.4c-0.1-0.8,0-1.6,0.3-2.3l0.8-1.7c0.5-1.1,1.2-2.2,2.1-3l0.9-0.9l1.9-1.9
			c0.6-0.7,1.3-1.3,2.1-1.8l4.7-3.2l18.9-13.8l16.9-12.5l1.2-1l3.2-3.9l4.5-6.8l2.9-6.3c0-0.1,0.1-0.2,0.1-0.2l0.4-1.7
			c0-0.1,0-0.2,0-0.2l1.1-15l0.6-4.8V276l0.4-1c0,0,0-0.1,0.1-0.1l0.7-0.8l1.3-0.9h0.1l1.5-0.4h0.1l2.6,0.1l3.1,0.4l3.3,0.7l3.1,1
			l2.5,0.7l0.2,0.1l16.9,2.5l5.8,1.4l3.4,1.3l1.5,0.7l0.9,0.8l0.6,0.8l0.1,0.1l0.3,0.7l0.4,1.4l0.1,1.5l0.1,1.4l-0.2,1.1l-0.5,1.2
			l-0.5,1.2l-0.1,0.2l0.1,0.6c-0.1,0.4,0,0.7,0.2,1c0.2,0.3,0.4,0.5,0.7,0.6l0.3,0.1l1.7,1c0.1,0,0.1,0.1,0.1,0.1l1.6,2.7l0.7,1.7
			l0.4,1.8l0.5,2.4l0.5,3l0.6,4.5l0.3,4.6l0.3,9.1l0.3,8.5l0.2,3l-0.1,2.7l-0.2,2.1l-0.4,2.1l-2.1,5.3v0.1l-1.3,4.7
			c-0.2,0.6,0,1.2,0.5,1.5l1.7,1.3l0.2,0.1l5.3,2.9l3.1,2.5l0.6,0.8l0.7,1.4l0.4,2l0.3,4.7l-0.4,2.4l-0.7,2.1l-0.1,0.1l-1,1.5
			l-1.4,1.5l-1.6,1.3c0,0-0.1,0-0.1,0.1l-4.2,1.7c0,0-0.1,0-0.1,0l-3.7,0.2l-1.5-0.2l-2.1-0.4l-2.1-1h-0.1l-3.1-2.7l-1.6-1.7
			l-1.9-1.9c-0.1-0.1-0.2-0.2-0.4-0.3l-1.4-0.7l-0.2-0.1l-2.1-0.7l-5-2.1l-1.8-1l-3.9-3.4l-1.2-1.2c0,0-0.1-0.1-0.1-0.1l-1.5-4.5
			c0-0.1-0.1-0.2-0.1-0.3l-0.6-1c-0.3-0.4-0.7-0.7-1.2-0.7c-0.2,0-0.3,0-0.5,0.1l-10,3.8l-18.8,7.5c-0.5,0.2-0.8,0.6-0.9,1.1
			l-2.3,9.7c-0.1,0.6,0.1,1.3,0.6,1.6l1.3,0.9l1.9,1.9c0,0,0.1,0.1,0.1,0.1l0.6,1.3l0.7,1.7l0.4,2l0.1,1.7c0,0.1,0,0.1,0,0.2
			l-0.4,1.7l-1,2.8l-1,2.1c0,0,0,0.1-0.1,0.1l-1.3,1.5l-2.1,1.7l-1.6,1l-1.4,0.4l-2,0.1L268.1,402.5z"/>
		<path class="st9" d="M293.2,273.4l2.6,0.1l3,0.4l3.3,0.7l3.1,1l2.4,0.7l0.3,0.1l16.9,2.5l5.8,1.4l3.3,1.3l1.4,0.7l0.8,0.7l0.5,0.7
			l0.3,0.7l0.4,1.3l0.1,1.4l0.1,1.4l-0.2,1l-0.5,1.1l-0.5,1.2c0,0.1-0.1,0.2-0.1,0.3l-0.1,0.5c-0.1,0.5-0.1,1,0.2,1.5
			c0.2,0.4,0.5,0.7,0.9,0.8l0.3,0.1l0.9,0.5l0.7,0.4l0.6,0.9l1,1.7l0.7,1.6l0.4,1.7l0.5,2.4l0.5,3l0.6,4.5l0.3,4.5l0.3,9.1l0.3,8.6
			l0.2,3l-0.1,2.7l-0.2,2.1l-0.4,2l-2.1,5.2c0,0.1-0.1,0.1-0.1,0.2l-1.3,4.7c-0.2,0.8,0.1,1.6,0.7,2.1l1.7,1.3
			c0.1,0.1,0.1,0.1,0.2,0.1l5.3,2.9l3.1,2.4l0.5,0.7l0.6,1.3l0.4,1.9l0.1,2.1l0.2,2.6l-0.4,2.3l-0.7,2l-1,1.4l-1.3,1.5l-1.5,1.2
			l-2.6,1l-1.6,0.7l-2.3,0.2l-1.4,0.1l-1.4-0.2l-2-0.4l-2-1l-1.5-1.3l-1.6-1.4l-1.6-1.7l-1.9-1.9c-0.1-0.1-0.3-0.3-0.5-0.4l-1.4-0.7
			l-0.2-0.1l-2.1-0.7l-3.1-1.3l-1.8-0.8l-1.8-1l-1.9-1.6l-1.9-1.7l-1.1-1.2l-1.5-4.5c0-0.1-0.1-0.3-0.2-0.4l-0.6-1
			c-0.3-0.6-1-1-1.7-1c-0.2,0-0.5,0-0.7,0.1l-10,3.8l-18.8,7.5c-0.6,0.3-1.1,0.8-1.3,1.5l-2.3,9.7c-0.2,0.8,0.1,1.7,0.8,2.2l1.3,0.9
			l1.8,1.8l0.6,1.3l0.7,1.7l0.4,1.9l0.1,1.6l-0.4,1.7l-1,2.7l-1,2.1l-1.3,1.5l-1.9,1.6l-1.6,0.9l-1.3,0.3l-2,0.1l-2.5-0.1l-2.8-1.2
			l-2.1-1.3l-1.5-1l-1.2-1.4l-1.3-1.5l-1.3-1.7l-1-1.6l-0.8-2c-0.3-0.7-1-1.2-1.8-1.3l-7.3-0.5h-0.1c-1,0-1.9,0.7-2.1,1.7l-0.1,0.7
			l-1.6,0.1l-2.6-0.1l-2.1-0.4l-2.7-0.7l-2.4-1l-2.1-1.3l-1.2-1l-1.5-1.4l-0.8-1l7.6-9.3c0.4-0.5,0.6-1.2,0.4-1.8l-1-4.9
			c-0.2-0.8-0.7-1.4-1.5-1.6l-3.1-0.9c-1.2-0.3-2.1-1.3-2.3-2.5l-0.3-1.5l-0.5-4.4c-0.1-0.7,0-1.4,0.3-2.1l0.8-1.7
			c0.5-1.1,1.2-2,2-2.9l0.9-0.9l1.9-1.9c0.6-0.6,1.3-1.2,2-1.7l4.7-3.3l18.9-13.8l16.9-12.4l0,0l0,0l1.2-1l0.1-0.1l0.1-0.1l3.1-3.9
			l0,0l0,0l4.4-6.7v-0.1v-0.1l2.9-6.2c0-0.1,0.1-0.2,0.1-0.3l0.4-1.7c0-0.1,0-0.2,0.1-0.3l0.5-6.4l0.6-8.6l0.6-4.8l0.4-1l0.7-0.8
			l1.2-0.8l1.5-0.4 M293.1,272.5h-0.2l-1.5,0.4c-0.1,0-0.2,0.1-0.3,0.1l-1.2,0.9c-0.1,0-0.1,0.1-0.2,0.2l-0.7,0.8
			c-0.1,0.1-0.1,0.2-0.2,0.2l-0.4,1c0,0.1-0.1,0.2-0.1,0.2l-0.6,4.8l-0.6,8.6l-0.5,6.4v0.2l-0.4,1.7c0,0.1,0,0.1,0,0.2l-2.9,6.2
			l-4.4,6.7l-3.1,3.9l-1.2,1l-16.5,12.5l-19.3,13.7l-4.7,3.2c-0.8,0.5-1.5,1.2-2.2,1.8l-1.8,1.9l-0.9,0.9c-0.9,0.9-1.7,2-2.2,3.2
			l-0.8,1.7c-0.3,0.8-0.5,1.7-0.4,2.6l0.5,4.4c0,0,0,0.1,0,0.1l0.3,1.6c0.3,1.6,1.5,2.8,3.1,3.3l3.1,0.9c0.4,0.1,0.7,0.4,0.7,0.8
			l1,4.9c0.1,0.3,0,0.6-0.2,0.9l-7.6,9.3c-0.3,0.4-0.3,0.9,0,1.3l0.8,1c0,0.1,0.1,0.1,0.1,0.2l1.5,1.4l1.2,1l0.1,0.1l2.1,1.3
			l0.1,0.1l2.4,1l0.1,0.1l2.7,0.7l2.1,0.4h0.2l2.6,0.1h0.1l1.6-0.1c0.5,0,0.9-0.4,1-0.9l0.1-0.7c0.1-0.5,0.5-0.9,1-0.9h0.1l7.3,0.5
			c0.4,0,0.7,0.3,0.9,0.7l0.8,2l0.1,0.1l1,1.6c0,0,0,0.1,0.1,0.1l1.3,1.7l0.1,0.1l1.3,1.4l1.2,1.4l0.2,0.1l1.5,1l0,0l2.2,1.4
			l3.1,1.3l2.8,0.1l2.1-0.1l1.5-0.4l1.8-1l2-1.6l0.1-0.1l1.3-1.4c0.1-0.1,0.1-0.2,0.2-0.2l1-2.1v-0.1l1-2.7c0,0,0-0.1,0-0.1l0.4-1.6
			c0-0.1,0-0.2,0-0.3l-0.1-1.6c0,0,0-0.1,0-0.1l-0.4-1.9c0-0.1,0-0.1-0.1-0.2l-0.7-1.7v-0.1l-0.6-1.3c0-0.1-0.1-0.2-0.2-0.3
			l-1.8-1.8l-0.1-0.1l-1.3-0.9c-0.3-0.2-0.5-0.7-0.4-1.1l2.3-9.7c0.1-0.5,0.4-0.8,0.9-0.9l18.8-7.5l10-3.8c0.1,0,0.2-0.1,0.3-0.1
			c0.3,0,0.6,0.2,0.8,0.4l0.6,1c0,0.1,0.1,0.1,0.1,0.2l1.5,4.5c0,0.1,0.1,0.2,0.2,0.3l1.2,1.2c0,0,0,0.1,0.1,0.1l1.9,1.7l1.9,1.6
			c0,0,0.1,0.1,0.1,0.1l1.8,1h0.1l1.8,0.8l3.1,1.3l0,0l2.1,0.7l0.1,0.1l1.4,0.7c0.1,0,0.2,0.1,0.2,0.2l1.9,1.9l1.6,1.7l0.1,0.1
			l1.6,1.4l1.5,1.3c0.1,0.1,0.1,0.1,0.2,0.1l2,1l0.2,0.1l2,0.4h0.1l1.4,0.2h0.2l1.4-0.1l2.3-0.2c0.1,0,0.2,0,0.3-0.1l1.7-0.7l2.6-1
			l0.2-0.1l1.6-1.2c0.1,0,0.1-0.1,0.1-0.1l1.3-1.5v-0.1l1-1.5c0-0.1,0.1-0.1,0.1-0.2l0.7-2v-0.1l0.4-2.3c0-0.1,0-0.2,0-0.2l-0.2-2.6
			l-0.1-2.1c0,0,0-0.1,0-0.1l-0.4-1.9c0-0.1,0-0.1-0.1-0.2l-0.6-1.3c0-0.1-0.1-0.1-0.1-0.2l-0.5-0.7c0-0.1-0.1-0.1-0.2-0.2l-3.1-2.4
			l-0.1-0.1l-5.3-2.9l-0.1-0.1l-1.5-1.1c-0.3-0.2-0.4-0.6-0.3-1l1.3-4.7v-0.1l2.1-5.2c0,0,0-0.1,0-0.1l0.4-2.1c0,0,0-0.1,0-0.1
			l0.2-2.1l0.1-2.7v-0.1l-0.2-3l-0.3-8.5l-0.3-9.2l-0.3-4.5c0,0,0,0,0-0.1l-0.6-4.5l-0.5-3l-0.5-2.4l-0.4-1.7c0,0,0-0.1,0-0.1
			l-0.7-1.7l-0.1-0.1l-1-1.7l-0.6-1c-0.1-0.1-0.2-0.3-0.3-0.3l-0.7-0.4l-0.9-0.5l-0.1-0.1l-0.3-0.1c-0.4-0.2-0.6-0.6-0.5-1l0.1-0.5
			c0,0,0-0.1,0-0.1l0.5-1.2l0.5-1.2c0-0.1,0-0.1,0-0.2l0.2-1c0-0.1,0-0.1,0-0.2l-0.1-1.4l-0.1-1.4v-0.2l-0.4-1.4V284l-0.3-0.7
			c0-0.1-0.1-0.1-0.1-0.2l-0.5-0.7l-0.1-0.1l-0.8-0.7c-0.1-0.1-0.1-0.1-0.2-0.1l-1.4-0.7h-0.1l-3.3-1.3h-0.1l-5.8-1.4h-0.1
			l-16.9-2.5h-0.1l-2.4-0.7l-3.1-1c0,0-0.1,0-0.1,0l-3.3-0.7h-0.1l-3-0.4h-0.1l-2.6-0.1L293.1,272.5z"/>
		<path class="st9" d="M234.1,374.7l3.4,1.9h0.1l4,1.8l0.2,0.1l6.5,1.6c0.2,0,0.4,0,0.5,0l3.8-1.1l0.2-0.1l4.3-2.1l0.2-0.1l3.6-2.6
			l0.2-0.1l3.6-3.8"/>
		<line class="st9" x1="246.8" y1="389.2" x2="248.5" y2="380.2"/>
		<path class="st9" d="M233.7,368.8l8.5,1.4h0.1l8.2,0.4h8.9l9.9-0.7h0.2l8-1.7h0.1l9.7-3.4h0.1l19.2-8.9l18-8.9l10.6-5.9l9.9-5.6"
			/>
		<line class="st9" x1="309.6" y1="359" x2="343.6" y2="346.4"/>
		<path class="st9" d="M326.6,373.6l1.2-4.3l0.4-1.3c0.4-1.2,0.9-2.4,1.5-3.5l0.5-0.9l0.4-0.6l1-1.6c0.4-0.7,1-1.3,1.6-1.8l1.3-1.2
			c0.2-0.2,0.5-0.4,0.8-0.6l0.9-0.6c0.7-0.5,1.5-0.9,2.3-1.2l0.3-0.1c1-0.4,2-0.6,3.1-0.6h0.1"/>
		<path class="st9" d="M337.9,374.1c0,0,0.5-4.6,3.3-5.7c1.4-0.7,3.1-0.8,4.6-0.3"/>
		<path class="st9" d="M265.3,394.9c0,0,0.5-4.6,3.3-5.7c1.4-0.7,3.1-0.8,4.6-0.3"/>
		<path class="st9" d="M283.9,365.6l-7.4-14.5l-4,1c-0.5,0.1-1.1,0.3-1.7,0.3l-9.2,1.2l-9.7,0.7l-5.2-0.3c-1.2-0.1-2.4-0.3-3.6-0.7
			h-0.1c-1.9-0.6-3.7-1.6-5.2-2.9l-0.8-0.7c-0.8-0.7-1.4-1.5-1.9-2.4l-1-1.9"/>
		<polyline class="st9" points="276.4,351.1 272.7,341.3 270.9,331.9 		"/>
		<path class="st9" d="M259.5,326.9l-0.5,2.2c-0.1,0.4-0.1,0.8-0.1,1.2v0.2c0.1,0.7,0.3,1.3,0.8,1.8l0,0c0.4,0.4,0.9,0.7,1.5,0.8
			l1.3,0.3l2.1,0.1c0.2,0,0.5,0,0.7,0l2.9-0.4c0.7-0.1,1.3-0.3,1.8-0.7l9.1-6.5l12.2-9.7l13.5-11.9c0.8-0.7,1.2-1.6,1.2-2.7
			l0.6-26.8"/>
		<polyline class="st9" points="291.5,362.5 289.1,357 287.2,352.8 286,347.4 285.4,343.1 285.4,339.8 289.8,340.7 294.2,342.6 
			298,344.4 301.8,346.9 305.1,349.8 309.5,354.1 		"/>
		<polyline class="st9" points="311.5,353 314.1,347.3 317.2,340.1 321.3,332.8 327.4,323.5 332.5,317.4 337.9,311.2 343.3,305.9 		
			"/>
		<polyline class="st9" points="279,325.9 285.6,327.9 291.2,330.2 297.2,333.2 302.3,336.5 307.1,339.8 314.4,345.7 		"/>
		<polyline class="st9" points="254.3,390.2 255.6,386.4 257.8,382.6 260,379.7 262.7,378 266.3,377.4 269.7,377.5 272.5,378.3 
			276.6,380.1 		"/>
		<path class="st9" d="M273,327c-0.9,0-1.7-0.7-1.8-1.7c-0.1-1,0.7-1.8,1.7-1.9h0.1c1,0,1.8,0.7,1.8,1.7c0,1-0.7,1.8-1.7,1.8H273z"
			/>
		<path class="st9" d="M273,323.9c0.7,0,1.3,0.5,1.3,1.2c0,0.7-0.5,1.3-1.2,1.3H273c-0.7,0-1.2-0.6-1.3-1.2c0-0.3,0.1-0.6,0.3-0.8
			C272.3,324.1,272.6,323.9,273,323.9L273,323.9 M273,322.9h-0.2c-1.3,0.1-2.2,1.2-2.1,2.5c0.1,1.2,1.1,2,2.2,2.1h0.2
			c1.3,0,2.3-1.1,2.2-2.4C275.3,323.8,274.3,322.8,273,322.9L273,322.9z"/>
		<path class="st9" d="M280.3,321.9c-1,0-1.8-0.7-1.8-1.7c0-1,0.7-1.8,1.7-1.8l0,0h0.1c1,0,1.8,0.7,1.8,1.7c0,1-0.7,1.8-1.7,1.8
			H280.3z"/>
		<path class="st9" d="M280.3,318.9c0.7,0,1.2,0.5,1.2,1.2c0.1,0.7-0.5,1.3-1.1,1.3c0,0,0,0,0,0h-0.1c-0.7,0-1.3-0.5-1.3-1.2
			C279,319.5,279.5,318.9,280.3,318.9L280.3,318.9L280.3,318.9 M280.3,317.8h-0.2c-1.3,0-2.3,1.1-2.2,2.4c0,1.3,1.1,2.3,2.4,2.2l0,0
			h0.2c1.3,0,2.3-1.1,2.2-2.4C282.7,318.8,281.6,317.8,280.3,317.8L280.3,317.8L280.3,317.8z"/>
		<path class="st9" d="M287.2,316.2c-1,0-1.7-0.9-1.7-1.8c0-0.9,0.7-1.6,1.6-1.7h0.1c1,0,1.8,0.7,1.8,1.7c0,1-0.7,1.8-1.7,1.8
			L287.2,316.2z"/>
		<path class="st9" d="M287.3,313.2c0.7,0,1.2,0.6,1.3,1.2c0,0.3-0.1,0.6-0.3,0.8c-0.2,0.3-0.5,0.4-0.9,0.4h-0.1
			c-0.7,0-1.2-0.5-1.2-1.2c-0.1-0.7,0.5-1.3,1.1-1.3C287.1,313.2,287.2,313.2,287.3,313.2L287.3,313.2 M287.3,312.2h-0.2
			c-1.3,0.1-2.2,1.2-2.1,2.5c0.1,1.2,1.1,2,2.2,2.1h0.2c1.3,0,2.3-1.1,2.2-2.4C289.6,313.1,288.5,312.1,287.3,312.2L287.3,312.2z"/>
		<path class="st9" d="M293.6,310.3c-1,0-1.8-0.7-1.8-1.7c0-1,0.7-1.8,1.7-1.8h0.1c1,0,1.8,0.8,1.8,1.8c0,0.4-0.2,0.8-0.4,1.2
			c-0.3,0.4-0.7,0.6-1.2,0.6L293.6,310.3z"/>
		<path class="st9" d="M293.6,307.3c0.7,0,1.3,0.5,1.3,1.2c0,0.7-0.5,1.3-1.2,1.3h-0.1c-0.7,0-1.3-0.5-1.3-1.2
			C292.3,307.9,292.8,307.3,293.6,307.3L293.6,307.3L293.6,307.3 M293.6,306.3h-0.2c-1.3,0-2.3,1.1-2.2,2.4c0,1.3,1.1,2.3,2.4,2.2
			h0.2c1.3-0.1,2.2-1.2,2.1-2.5C295.7,307.2,294.7,306.3,293.6,306.3L293.6,306.3z"/>
		<path class="st9" d="M297.7,303.9c-1,0-1.8-0.7-1.8-1.7c0-1,0.7-1.8,1.7-1.8l0,0h0.1c1,0,1.7,0.9,1.7,1.8c0,0.9-0.7,1.6-1.6,1.7
			L297.7,303.9z"/>
		<path class="st9" d="M297.7,300.9c0.7,0,1.2,0.6,1.2,1.3c0,0.6-0.5,1.1-1.1,1.2h-0.1c-0.7,0-1.2-0.6-1.3-1.2
			c0-0.3,0.1-0.6,0.3-0.8C297,301,297.3,300.9,297.7,300.9L297.7,300.9 M297.7,299.8h-0.2c-1.3,0-2.3,1.1-2.2,2.4
			c0,1.3,1.1,2.3,2.4,2.2l0,0h0.2c1.3-0.1,2.2-1.2,2.1-2.5C299.8,300.8,298.9,299.9,297.7,299.8L297.7,299.8z"/>
		<path class="st9" d="M299.3,295.5c-1,0-1.7-0.9-1.7-1.8c0-0.9,0.7-1.6,1.6-1.7h0.1c1,0,1.8,0.7,1.8,1.7c0,1-0.7,1.8-1.7,1.8
			L299.3,295.5z"/>
		<path class="st9" d="M299.3,292.5c0.7,0,1.3,0.5,1.3,1.2s-0.5,1.3-1.2,1.3h-0.1c-0.7,0-1.2-0.6-1.2-1.3
			C298.1,293.1,298.6,292.6,299.3,292.5L299.3,292.5 M299.3,291.5h-0.1c-1.3,0.1-2.2,1.2-2.1,2.5c0.1,1.2,1.1,2,2.2,2.1h0.2
			c1.3,0,2.3-1.1,2.2-2.4C301.7,292.4,300.6,291.5,299.3,291.5L299.3,291.5z"/>
		<path class="st9" d="M298.5,286.9c-0.9,0-1.7-0.7-1.8-1.7c0-0.5,0.1-0.9,0.4-1.3c0.3-0.4,0.7-0.6,1.2-0.6h0.1c1,0,1.8,0.8,1.8,1.8
			c0,0.4-0.2,0.8-0.4,1.2c-0.3,0.4-0.7,0.6-1.2,0.6L298.5,286.9z"/>
		<path class="st9" d="M298.5,283.9c0.7,0,1.2,0.6,1.2,1.3c0,0.6-0.5,1.1-1.1,1.2h-0.1c-0.7,0-1.3-0.5-1.3-1.2
			C297.2,284.5,297.7,283.9,298.5,283.9L298.5,283.9 M298.5,282.9h-0.2c-1.3,0-2.3,1.1-2.2,2.4c0,1.3,1.1,2.3,2.4,2.2l0,0h0.2
			c1.3-0.1,2.2-1.2,2.1-2.5C300.6,283.8,299.6,282.9,298.5,282.9L298.5,282.9z"/>
		<path class="st9" d="M267.3,321.6l2.1,1c0.5,0.2,1,0.5,1.4,0.8l2.3,1.7"/>
		<path class="st9" d="M273.8,316.4l2.5,1.2c0.5,0.2,1,0.5,1.4,0.8l2.3,1.8"/>
		<path class="st9" d="M279.5,310.2l2.5,1.2c0.7,0.2,1.4,0.5,2,0.9l2.9,1.6"/>
		<path class="st9" d="M283.5,304.3l1.9,0.2c1.2,0.1,2.4,0.5,3.4,1l0.9,0.5l3.8,2.5"/>
		<path class="st9" d="M286.9,297.2l3.8,0.9l2.9,1.2c0.6,0.3,1.1,0.6,1.6,1l2.5,1.9"/>
		<path class="st9" d="M287.6,288.9l2.9,0.4c0.8,0.1,1.6,0.3,2.3,0.7l2.3,1l4.2,2.8"/>
		<polyline class="st9" points="287.8,280.3 289.3,280.6 293.4,281.8 298.5,285.1 		"/>
	</g>
	<polyline class="st9" points="255.8,330.2 269.9,318.3 280.2,307.8 287.5,295.1 	"/>
	<path class="st9" d="M207,303.2l9.1,8.7c0.8,0.8,1.7,1.5,2.7,2.2l14.4,10.2"/>
</g>
</svg>
