<svg xmlns="http://www.w3.org/2000/svg" viewBox="0 0 4.41 4.41"><defs><style>.cls-1,.cls-2{fill:#052749;}.cls-2{fill-rule:evenodd;}</style></defs><title>twitter</title><g id="Layer_2" data-name="Layer 2"><g id="Layer_1-2" data-name="Layer 1"><path class="cls-1" d="M2.2.11A2.1,2.1,0,1,1,.11,2.2,2.09,2.09,0,0,1,2.2.11M2.2,0A2.21,2.21,0,1,0,4.41,2.2,2.21,2.21,0,0,0,2.2,0Z"/><path class="cls-2" d="M.94,3.06A1.25,1.25,0,0,0,1.51,3a1.09,1.09,0,0,0,.23-.14.48.48,0,0,1-.24-.06.53.53,0,0,1-.26-.29s0,0,0,0a.42.42,0,0,0,.2,0l-.13-.05A.58.58,0,0,1,1,1.91s0,0,0,0A.55.55,0,0,0,1.28,2l-.1-.09a.56.56,0,0,1-.08-.62s0,0,0,0a1.56,1.56,0,0,0,1,.54l.12,0s0,0,0,0a.56.56,0,0,1,.93-.5s0,0,.06,0a1.48,1.48,0,0,0,.29-.12h0a.57.57,0,0,1-.23.3,1.11,1.11,0,0,0,.3-.08.05.05,0,0,1,0,0,1.25,1.25,0,0,1-.23.23.05.05,0,0,0,0,0A1.57,1.57,0,0,1,3,2.76,1.5,1.5,0,0,1,2,3.28,1.54,1.54,0,0,1,1,3.06Z"/></g></g></svg>